<?xml version="1.0" standalone="no"?>
<!DOCTYPE svg PUBLIC "-//W3C//DTD SVG 20010904//EN"
 "http://www.w3.org/TR/2001/REC-SVG-20010904/DTD/svg10.dtd">
<svg version="1.0" xmlns="http://www.w3.org/2000/svg"
 width="1905.000000pt" height="1905.000000pt" viewBox="0 0 1905.000000 1905.000000"
 preserveAspectRatio="xMidYMid meet">
<metadata>
Created by potrace 1.11, written by Peter Selinger 2001-2013
</metadata>
<g transform="translate(0.000000,1905.000000) scale(0.100000,-0.100000)"
fill="#000000" stroke="none">
<path d="M7175 14483 c-237 -14 -516 -95 -745 -215 -133 -71 -334 -207 -385
-262 -5 -6 -30 -27 -53 -45 -24 -19 -67 -59 -95 -89 -29 -30 -59 -62 -67 -70
-54 -56 -167 -196 -216 -270 -33 -48 -62 -88 -66 -90 -5 -2 -8 -8 -8 -13 0 -5
-15 -30 -34 -56 -43 -61 -192 -354 -233 -458 -60 -154 -122 -350 -149 -476
-25 -115 -54 -280 -58 -325 -2 -30 -10 -62 -18 -71 -7 -9 -57 -51 -110 -94
-53 -44 -112 -93 -130 -110 -18 -17 -97 -82 -175 -144 -77 -63 -151 -122 -164
-132 -12 -10 -43 -36 -68 -58 -119 -105 -267 -226 -401 -328 -35 -27 -176
-143 -190 -157 -32 -31 -614 -476 -805 -616 -110 -80 -209 -152 -220 -160
-124 -91 -676 -454 -690 -454 -2 0 -48 -28 -102 -62 -53 -33 -122 -72 -153
-85 -49 -22 -439 -210 -816 -394 -78 -38 -144 -69 -147 -69 -4 0 -89 -40 -189
-88 -101 -49 -250 -117 -333 -152 -82 -34 -163 -68 -180 -75 -16 -7 -48 -20
-70 -30 -22 -9 -55 -26 -72 -38 -32 -21 -33 -24 -33 -92 1 -39 6 -77 13 -86
18 -23 243 -106 364 -134 10 -2 43 -11 73 -20 103 -30 182 -48 277 -60 13 -2
42 -6 65 -10 93 -16 253 -20 363 -10 49 5 217 37 320 61 23 5 108 23 145 30
14 3 41 9 60 14 19 5 105 21 190 35 85 14 163 27 173 29 9 2 17 -1 17 -8 0
-17 -225 -291 -291 -355 -40 -38 -205 -242 -249 -306 -49 -73 -148 -262 -176
-337 -9 -24 -25 -78 -36 -120 -18 -66 -19 -84 -10 -117 10 -31 18 -40 43 -45
17 -3 34 -4 38 -2 3 2 42 7 86 10 90 7 233 30 312 51 120 31 333 110 450 165
69 33 127 60 129 60 7 0 354 206 444 264 52 33 140 94 195 136 55 41 125 91
155 110 30 19 57 38 58 42 2 5 8 8 12 8 5 0 39 21 76 47 l66 46 -5 -39 c-9
-58 -85 -284 -167 -494 -40 -102 -92 -234 -115 -295 -23 -60 -55 -141 -72
-180 -43 -99 -210 -614 -224 -690 -1 -5 -10 -35 -21 -65 -26 -76 -26 -106 3
-136 48 -52 89 -32 380 187 191 144 257 201 479 421 181 178 250 251 310 328
19 25 37 47 40 50 6 5 74 94 118 153 12 18 22 37 22 44 0 7 5 13 10 13 6 0 10
-26 11 -57 1 -60 2 -82 13 -288 8 -124 10 -182 21 -395 3 -69 8 -150 10 -180
2 -30 7 -104 11 -165 6 -100 10 -170 13 -202 1 -7 12 -24 26 -38 61 -60 103
-24 329 287 183 252 247 365 376 664 92 214 124 272 185 339 43 46 49 41 60
-45 4 -30 13 -84 21 -120 14 -69 22 -110 29 -150 25 -156 107 -502 146 -615
22 -66 43 -128 46 -137 7 -24 60 -43 90 -32 29 11 20 -7 237 434 97 195 195
391 219 435 24 44 61 112 82 150 21 39 53 99 72 135 19 35 44 78 57 94 l23 30
32 -60 c73 -137 210 -297 463 -539 233 -223 304 -283 345 -291 80 -15 82 -11
174 473 l10 52 82 -67 c46 -37 143 -113 217 -169 305 -230 624 -519 755 -683
51 -63 108 -131 127 -151 19 -20 57 -63 84 -95 27 -33 70 -81 95 -109 26 -27
66 -75 90 -105 24 -30 85 -104 137 -165 52 -60 120 -144 151 -185 31 -41 59
-77 62 -80 7 -6 168 -245 192 -285 87 -148 219 -425 257 -540 15 -46 40 -84
55 -85 15 0 37 41 85 160 138 344 331 660 588 963 43 49 110 131 151 181 40
50 90 109 110 131 20 22 68 76 106 120 38 44 78 89 89 100 12 11 37 40 56 65
19 25 37 47 40 50 3 3 23 28 45 55 86 110 341 345 615 565 58 47 107 88 108
92 2 5 8 8 13 8 13 0 275 202 291 225 4 5 8 8 9 5 0 -3 2 -16 5 -30 2 -14 11
-63 20 -110 9 -47 18 -96 20 -110 2 -14 7 -36 10 -50 3 -14 8 -36 10 -50 4
-21 13 -64 20 -92 1 -5 2 -15 3 -23 2 -26 48 -65 76 -65 24 0 63 20 91 45 6 5
42 37 79 70 145 127 428 407 491 485 16 19 31 37 35 40 11 9 115 164 139 208
23 40 25 42 41 25 9 -10 38 -58 64 -108 27 -49 60 -110 73 -135 83 -149 140
-261 293 -570 236 -479 219 -450 265 -450 38 0 71 40 97 120 62 188 65 199
102 390 2 14 9 45 16 70 6 25 12 53 14 63 2 10 6 26 9 35 3 9 7 31 10 47 11
67 18 106 42 230 13 72 28 144 32 160 l8 30 38 -40 c48 -50 106 -147 146 -245
17 -41 40 -94 51 -117 10 -24 19 -46 19 -50 0 -15 127 -263 173 -338 27 -44
86 -131 131 -193 211 -295 278 -372 322 -372 27 0 73 42 75 69 1 9 3 27 4 41
2 27 16 250 21 340 1 30 5 100 8 155 7 110 13 227 22 410 3 66 7 143 9 170 2
28 5 76 6 108 1 31 4 57 8 57 3 0 14 -17 23 -38 10 -20 30 -51 45 -68 16 -18
68 -83 117 -145 90 -114 394 -424 560 -571 103 -91 388 -306 478 -360 72 -44
106 -48 137 -14 30 32 26 66 -30 246 -22 74 -54 178 -70 230 -64 211 -124 374
-294 800 -95 238 -190 512 -202 584 -5 32 -3 37 8 30 60 -37 278 -188 339
-234 68 -51 287 -200 294 -200 2 0 64 -37 137 -81 293 -178 630 -321 869 -368
88 -18 102 -20 140 -25 225 -30 263 -27 273 24 7 32 4 56 -19 165 -10 47 -147
325 -195 396 -43 64 -203 265 -225 284 -13 12 -89 97 -154 174 -25 29 -55 65
-68 80 -62 71 -103 131 -97 141 3 6 10 8 13 6 4 -2 28 -7 52 -11 110 -16 277
-48 515 -99 116 -24 224 -48 240 -51 17 -3 98 -9 180 -12 172 -6 355 16 550
68 61 16 117 31 126 33 141 36 328 103 357 129 20 19 22 29 20 96 l-3 75 -60
31 c-33 18 -96 46 -140 63 -154 59 -236 96 -488 216 -87 42 -161 76 -163 76
-3 0 -69 31 -147 69 -78 38 -203 98 -277 133 -74 35 -187 91 -250 123 -63 32
-177 87 -253 121 -76 34 -146 69 -155 77 -9 8 -87 56 -172 107 -224 135 -557
358 -820 550 -157 114 -372 272 -390 287 -8 7 -60 47 -115 90 -55 43 -105 82
-111 88 -7 5 -24 19 -40 30 -53 38 -180 139 -264 209 -46 39 -91 76 -100 83
-215 168 -347 275 -409 331 -20 18 -121 102 -226 187 -104 84 -201 164 -215
177 -14 13 -78 68 -142 121 -65 54 -118 106 -119 115 -1 28 -8 84 -19 147 -5
33 -12 71 -14 85 -45 264 -158 596 -289 850 -118 231 -289 481 -432 635 -104
112 -128 136 -211 206 -151 128 -307 232 -462 307 -65 32 -195 85 -212 87 -3
1 -27 8 -55 17 -56 19 -199 53 -260 62 -91 14 -119 16 -305 17 -228 2 -254 -3
-501 -101 -233 -93 -432 -208 -629 -366 -123 -98 -371 -351 -475 -484 -49 -63
-92 -117 -95 -120 -3 -3 -23 -32 -45 -65 -22 -33 -42 -62 -45 -65 -18 -16
-117 -185 -180 -305 -141 -271 -170 -330 -214 -438 -9 -21 -20 -36 -24 -33 -5
3 -24 43 -42 88 -18 46 -45 106 -60 133 -15 28 -60 113 -100 190 -149 288
-242 428 -452 689 -46 56 -325 335 -382 381 -224 183 -431 305 -671 398 -179
69 -230 85 -293 93 -57 7 -272 11 -347 7z"/>
</g>
</svg>
