<?xml version="1.0" encoding="UTF-8" ?>
<!DOCTYPE svg PUBLIC "-//W3C//DTD SVG 1.1//EN" "http://www.w3.org/Graphics/SVG/1.1/DTD/svg11.dtd">
<svg width="800pt" height="417pt" viewBox="0 0 800 417" version="1.1" xmlns="http://www.w3.org/2000/svg">
<g id="#000000ff">
<path fill="#000000" opacity="1.00" d=" M 263.25 13.27 C 276.73 4.46 292.89 -0.48 309.06 0.28 C 318.19 -0.51 326.49 3.89 334.69 7.19 C 356.22 17.45 372.99 35.58 385.61 55.47 C 390.81 64.76 395.95 74.14 400.00 84.00 C 403.61 75.00 408.38 66.54 412.90 57.99 C 421.25 43.86 431.94 31.08 444.50 20.51 C 455.11 11.58 467.72 5.27 480.94 1.21 C 486.83 -0.36 492.99 0.45 499.00 0.38 C 515.30 1.41 530.98 8.13 543.68 18.26 C 557.30 28.92 567.67 43.27 575.25 58.71 C 581.97 72.36 585.68 87.28 587.73 102.29 C 591.97 106.68 597.14 110.16 601.60 114.37 C 611.81 122.14 621.17 130.94 631.41 138.67 C 658.80 161.02 687.03 182.55 717.43 200.68 C 722.42 203.95 728.18 205.68 733.38 208.56 C 741.97 213.18 750.96 217.00 759.68 221.37 C 769.77 225.87 779.53 231.12 789.86 235.08 C 793.35 236.39 796.77 237.90 800.00 239.79 L 800.00 246.23 C 796.86 248.45 793.14 249.54 789.50 250.64 C 775.82 254.84 761.28 258.41 746.93 255.68 C 735.64 253.46 724.49 250.52 713.04 249.21 C 721.63 261.72 734.23 271.33 740.70 285.30 C 743.01 290.22 745.81 295.27 745.71 300.86 C 745.80 302.27 744.56 303.63 743.09 303.34 C 719.21 302.80 697.78 290.59 678.41 277.72 C 672.00 272.85 665.35 268.34 658.59 263.97 C 661.59 276.55 667.01 288.36 671.50 300.43 C 676.92 313.29 680.92 326.71 684.73 340.11 C 685.73 342.20 684.33 344.69 682.03 344.88 C 679.36 344.28 677.15 342.56 674.95 341.04 C 666.81 334.98 658.41 329.11 651.48 321.63 C 642.25 313.08 633.32 303.90 626.78 293.09 C 625.60 311.02 625.14 329.01 623.67 346.93 C 623.63 348.94 621.15 351.28 619.24 349.78 C 615.06 346.60 612.42 341.89 609.27 337.78 C 603.99 330.76 599.17 323.36 595.59 315.32 C 592.03 307.72 589.82 299.14 583.57 293.16 C 580.23 308.22 578.33 323.70 573.11 338.29 C 572.64 340.49 570.39 342.28 568.17 341.03 C 566.78 339.59 566.03 337.68 565.14 335.93 C 557.36 319.49 549.23 303.18 540.05 287.47 C 532.79 300.86 520.97 310.75 510.04 321.02 C 507.95 322.61 505.99 325.27 503.09 324.97 C 500.81 324.92 500.82 322.28 500.24 320.66 C 498.98 314.77 497.78 308.86 496.91 302.90 C 482.83 313.69 468.61 324.44 456.08 337.05 C 448.29 346.89 439.56 355.92 431.76 365.74 C 422.38 376.37 413.96 387.94 407.73 400.71 C 405.11 406.03 403.14 411.63 400.64 417.00 L 399.50 417.00 C 396.61 411.52 394.78 405.56 391.96 400.05 C 381.24 378.25 363.82 360.93 348.39 342.50 C 346.47 340.10 344.61 337.64 342.44 335.46 C 330.14 323.65 316.64 313.21 303.09 302.90 C 301.98 309.68 300.89 316.51 299.05 323.13 C 298.45 325.80 294.84 325.31 293.27 323.78 C 287.17 318.84 281.65 313.22 275.96 307.81 C 270.79 302.67 265.73 297.30 262.14 290.91 C 261.35 289.91 260.96 288.32 259.57 288.04 C 251.46 302.07 244.15 316.55 237.12 331.15 C 235.56 334.27 234.32 337.59 232.33 340.49 C 230.79 342.39 227.61 341.19 227.16 338.93 C 221.67 324.19 219.82 308.45 216.44 293.16 C 211.70 297.67 209.21 303.79 206.81 309.73 C 203.21 318.70 198.59 327.28 192.74 334.99 C 189.07 339.83 185.94 345.19 181.43 349.32 C 179.61 351.53 176.27 349.34 176.33 346.89 C 174.86 329.19 174.40 311.42 173.27 293.69 C 166.29 303.41 158.59 312.66 149.58 320.58 C 141.83 328.96 132.49 335.61 123.28 342.27 C 121.26 343.42 118.88 345.67 116.44 344.36 C 114.93 343.54 114.69 341.61 115.27 340.13 C 117.83 330.61 120.92 321.25 124.02 311.90 C 129.80 295.92 137.32 280.51 141.41 263.96 C 134.66 268.31 128.04 272.84 121.63 277.68 C 101.71 290.96 79.48 303.53 54.81 303.35 C 54.03 300.16 54.38 296.83 55.61 293.80 C 58.19 287.08 61.30 280.47 65.71 274.75 C 72.38 265.89 80.65 258.34 86.96 249.19 C 75.86 250.50 65.03 253.25 54.11 255.49 C 40.80 258.27 27.10 255.60 14.30 251.74 C 9.43 250.25 4.28 249.17 0.00 246.26 L 0.00 239.80 C 5.61 236.41 11.96 234.61 17.87 231.86 C 28.55 226.96 39.15 221.88 49.74 216.80 C 59.63 212.48 68.96 207.02 78.89 202.81 C 110.96 184.21 140.48 161.57 169.18 138.21 C 178.12 131.57 186.17 123.83 195.02 117.07 C 199.96 113.37 204.30 108.96 209.22 105.24 C 210.54 104.04 212.47 102.99 212.59 101.00 C 214.59 84.17 219.60 67.63 227.81 52.78 C 236.37 37.14 248.18 23.01 263.25 13.27 Z" />
</g>
</svg>
